<svg width="89" height="50" viewBox="0 0 89 50" fill="none" xmlns="http://www.w3.org/2000/svg">
<g clip-path="url(#clip0_893_21649)">
<path d="M62.2633 32.0827C61.0506 32.367 57.8587 32.5307 57.8587 32.5307L57.4545 33.8231C57.4545 33.8231 59.0462 33.6853 60.2084 33.8059C60.2084 33.8059 60.5874 33.7628 60.6295 34.2453C60.6373 34.5559 60.626 34.8667 60.5958 35.1758C60.5958 35.1758 60.5706 35.4688 60.1663 35.5377C59.7284 35.6153 56.7302 35.7273 56.7302 35.7273L56.2417 37.4074C56.2417 37.4074 56.0649 37.7952 56.4691 37.6831C56.8481 37.5798 59.9894 36.9766 60.4021 37.0628C60.8401 37.1748 61.3285 37.7693 61.1853 38.3207C61.0169 38.9928 57.884 41.0434 55.9722 40.897C55.9722 40.897 54.97 40.9659 54.1194 39.5787C53.3278 38.2604 54.4226 35.7531 54.4226 35.7531C54.4226 35.7531 53.9257 34.5813 54.2878 34.1936C54.2878 34.1936 54.5068 33.9954 55.13 33.9437L55.8964 32.3153C55.8964 32.3153 55.0205 32.3756 54.4984 31.7208C54.0099 31.0918 53.9762 30.8075 54.3468 30.6351C54.7426 30.437 58.3893 29.7563 60.899 29.8425C60.899 29.8425 61.7749 29.7563 62.5244 31.3072C62.516 31.3072 62.8866 31.9362 62.2633 32.0827ZM52.8224 38.338C52.5024 39.1134 51.6518 39.9406 50.5991 39.4236C49.5463 38.9066 47.8957 35.4343 47.8957 35.4343C47.8957 35.4343 47.264 34.1419 47.1461 34.1678C47.1461 34.1678 47.0114 33.9179 46.9271 35.3309C46.8429 36.744 46.944 39.4925 46.3966 39.9233C45.8744 40.3541 45.2428 40.1818 44.9143 39.6735C44.6196 39.1737 44.4932 37.9847 44.6532 35.8996C44.8469 33.8145 45.3186 31.5915 45.9249 30.8936C46.5313 30.1957 47.0198 30.7041 47.2051 30.885C47.2051 30.885 48.0136 31.6346 49.3526 33.8403L49.5885 34.2453C49.5885 34.2453 50.8012 36.3304 50.9275 36.3218C50.9275 36.3218 51.0286 36.4166 51.1128 36.3476C51.2391 36.3132 51.1886 35.6411 51.1886 35.6411C51.1886 35.6411 50.936 33.3751 49.8327 29.5323C49.8327 29.5323 49.6642 29.0498 49.7822 28.6017C49.9001 28.1537 50.338 28.3605 50.338 28.3605C50.338 28.3605 52.0561 29.2393 52.8814 32.0999C53.6983 34.9863 53.1425 37.5625 52.8224 38.338ZM44.3837 30.9884C44.2406 31.2814 44.1564 31.7035 43.4321 31.8156C43.4321 31.8156 36.5009 32.2981 36.1724 32.7978C36.1724 32.7978 35.9282 33.0907 36.3072 33.1769C36.6862 33.2631 38.2526 33.4699 39.0106 33.5129C39.8191 33.5215 42.5478 33.5474 43.5247 34.7967C43.5247 34.7967 44.1058 35.3913 44.0806 36.7354C44.0553 38.114 43.8195 38.5965 43.2973 39.0962C42.7499 39.5615 38.0505 41.7155 35.0186 38.4069C35.0186 38.4069 33.6206 36.8129 35.4987 35.6067C35.4987 35.6067 36.8546 34.7709 40.2991 35.7531C40.2991 35.7531 41.3435 36.1409 41.2929 36.5286C41.234 36.9422 40.4339 37.3816 39.2717 37.3557C38.1431 37.3213 37.3178 36.7698 37.4778 36.856C37.6294 36.9163 36.2651 36.1839 35.844 36.6837C35.4229 37.1403 35.5239 37.4247 35.9366 37.709C36.9894 38.3207 41.0571 38.1053 42.2699 36.7268C42.2699 36.7268 42.7499 36.1667 42.0172 35.71C41.2845 35.2792 39.1875 35.0208 38.3705 34.9777C37.5873 34.9346 34.6733 34.9863 34.2522 34.1936C34.2522 34.1936 33.8312 33.6594 34.2944 32.143C34.7828 30.5576 38.1768 29.9458 39.6422 29.808C39.6422 29.808 43.6763 29.6615 44.4174 30.5059C44.4675 30.6652 44.4554 30.838 44.3837 30.9884ZM32.93 40.2852C32.4415 40.6557 31.4057 40.492 31.1109 40.0784C30.8161 39.7079 30.7151 38.2346 30.774 35.9255C30.833 33.5905 30.8835 30.6955 31.372 30.2388C31.8941 29.7735 32.2142 30.1785 32.4163 30.4973C32.6353 30.8075 32.8963 31.1521 32.9553 31.8845C33.0142 32.6169 33.1742 36.4597 33.1742 36.4597C33.1742 36.4597 33.3932 39.9233 32.93 40.2852ZM33.9827 27.8952C32.5595 28.3777 31.5825 28.214 30.7572 27.8521C30.395 28.4983 30.1845 28.6965 29.9066 28.7396C29.5023 28.7827 29.1402 28.1192 29.0728 27.9038C29.0054 27.7401 28.8117 27.4644 29.0475 26.8096C28.239 26.0686 28.1801 25.0691 28.3148 24.3971C28.517 23.6216 29.8813 20.6749 34.0333 20.3302C34.0333 20.3302 36.0629 20.1751 36.4082 21.2866H36.4672C36.4672 21.2866 38.4379 21.2952 38.3958 23.0874C38.3705 24.8882 36.2061 27.1284 33.9827 27.8952ZM30.1087 23.9059C29.6876 24.5952 29.6708 25.0088 29.8645 25.2931C30.3445 24.5435 31.2204 23.3631 32.5089 22.467C31.5151 22.5532 30.6814 22.9926 30.1087 23.9059ZM35.844 22.7514C34.5386 22.9495 32.5173 24.7417 31.5573 26.2064C33.0311 26.4822 35.6334 26.3788 36.7872 23.9749C36.7788 23.9749 37.3346 22.4843 35.844 22.7514ZM71.2832 36.632C70.4999 38.0278 68.3018 40.94 65.371 40.2594C64.4025 42.6633 63.594 45.0844 63.1308 48.7204C63.1308 48.7204 63.0297 49.4269 62.4571 49.1771C61.8928 48.9703 60.9495 48.0053 60.7643 46.6698C60.5621 44.9121 61.3285 41.9395 62.8866 38.5361C62.4318 37.7779 62.1202 36.6923 62.3897 35.15C62.3897 35.15 62.7855 32.2894 65.59 29.7046C65.59 29.7046 65.9269 29.403 66.1206 29.4978C66.3395 29.5926 66.2385 30.5231 66.0616 30.9712C65.8848 31.4192 64.6299 33.6422 64.6299 33.6422C64.6299 33.6422 63.8467 35.1414 64.0656 36.3218C65.5395 34.0041 68.8913 29.3255 70.9715 30.7988C71.6706 31.3072 71.9906 32.4187 71.9906 33.6163C71.9822 34.6761 71.7379 35.7962 71.2832 36.632ZM70.6768 32.9615C70.6768 32.9615 70.5589 32.0396 69.683 33.0563C68.925 33.9093 67.5607 35.5205 66.4574 37.7004C67.6112 37.5711 68.7229 36.9249 69.0598 36.5975C69.6072 36.0978 70.8789 34.7537 70.6768 32.9615ZM29.7887 34.1333C29.6286 36.2184 28.8454 39.7252 23.2954 41.457C19.6319 42.5857 16.1705 42.0429 14.284 41.5518C14.2419 42.3186 14.1577 42.646 14.0398 42.7753C13.8798 42.939 12.6839 43.6455 12.027 42.646C11.7322 42.1722 11.5806 41.3105 11.4964 40.5437C7.25177 38.5448 5.2979 35.667 5.2221 35.5377C5.12946 35.4429 4.16095 34.409 5.12946 33.1424C6.03902 31.9965 9.01194 30.8505 11.6901 30.3853C11.7827 28.0417 12.0522 26.2754 12.3723 25.4655C12.7597 24.5263 13.2481 25.3707 13.6692 26.0083C14.0229 26.4822 14.2335 28.5242 14.2503 30.1526C16.0021 30.0665 17.038 30.1957 18.9918 30.5576C21.5352 31.0315 23.2365 32.3584 23.0849 33.8662C22.9754 35.3482 21.6447 35.9599 21.1394 36.003C20.6088 36.0461 19.7835 35.6583 19.7835 35.6583C19.2192 35.3826 19.7414 35.1414 20.4236 34.8398C21.1647 34.4693 20.9962 34.0902 20.9962 34.0902C20.7183 33.2631 17.417 32.6858 14.1324 32.6858C14.1156 34.5383 14.2082 37.6142 14.2503 39.4064C16.5495 39.8544 18.2676 39.7683 18.2676 39.7683C18.2676 39.7683 26.6557 39.527 26.9084 34.0471C27.161 28.5673 18.5455 23.2942 12.1701 21.6227C5.80321 19.9167 2.19865 21.1057 1.88705 21.2694C1.55017 21.4417 1.86178 21.4934 1.86178 21.4934C2.18252 21.5533 2.49797 21.6397 2.80503 21.7519C3.43667 21.9587 2.9482 22.2947 2.9482 22.2947C1.86178 22.648 0.64061 22.424 0.404798 21.9156C0.168986 21.4073 0.564813 20.9506 1.01959 20.2958C1.47437 19.6065 1.97126 19.6323 1.97126 19.6323C9.8457 16.8407 19.4382 21.8898 19.4382 21.8898C28.4243 26.5511 29.9571 32.0137 29.7887 34.1333ZM6.02218 33.849C5.12946 34.297 5.74426 34.9432 5.74426 34.9432C7.42021 36.7871 9.48356 37.9416 11.4459 38.6568C11.6732 35.4774 11.6396 34.3573 11.6648 32.7547C8.59927 32.9701 6.83068 33.4699 6.02218 33.849Z" fill="#020E40"/>
<path d="M87.9585 33.1943V34.3316C87.959 34.3906 87.9479 34.449 87.9261 34.5036C87.9042 34.5582 87.872 34.6077 87.8312 34.6494C87.7905 34.6911 87.742 34.7241 87.6887 34.7465C87.6354 34.7688 87.5782 34.7801 87.5206 34.7796H82.2232C82.2232 35.064 82.2317 35.3138 82.2317 35.5465C82.2392 37.0804 82.1632 38.6136 82.0043 40.1389C81.9941 40.2487 81.9446 40.3508 81.8653 40.4255C81.786 40.5003 81.6826 40.5424 81.5747 40.5438H80.4294C80.3722 40.5439 80.3157 40.5316 80.2635 40.5079C80.2112 40.4841 80.1645 40.4494 80.1262 40.406C80.0872 40.3621 80.0579 40.3102 80.0405 40.2536C80.023 40.1971 80.0178 40.1374 80.0251 40.0786C80.1864 38.5736 80.2651 37.0605 80.2609 35.5465C80.2609 35.3052 80.2609 35.0554 80.2525 34.7796H75.0141C74.9565 34.7801 74.8993 34.7688 74.846 34.7465C74.7927 34.7241 74.7442 34.6911 74.7035 34.6494C74.6627 34.6077 74.6305 34.5582 74.6086 34.5036C74.5868 34.449 74.5757 34.3906 74.5762 34.3316V33.1943C74.5757 33.1353 74.5868 33.0768 74.6086 33.0223C74.6305 32.9677 74.6627 32.9181 74.7035 32.8764C74.7442 32.8347 74.7927 32.8017 74.846 32.7794C74.8993 32.757 74.9565 32.7458 75.0141 32.7462H80.1767C80.0724 30.9172 79.8445 29.0977 79.4946 27.3008C79.4854 27.2466 79.4875 27.191 79.5005 27.1376C79.5136 27.0842 79.5373 27.0341 79.5703 26.9906C79.6035 26.9477 79.6458 26.9131 79.6939 26.8892C79.742 26.8653 79.7948 26.8529 79.8483 26.8528H81.0863C81.1801 26.8532 81.2708 26.887 81.343 26.9483C81.4152 27.0096 81.4644 27.0946 81.4821 27.1888C81.8226 29.0246 82.0476 30.8809 82.1559 32.7462H87.5206C87.6361 32.7482 87.7464 32.7961 87.8281 32.8797C87.9098 32.9633 87.9566 33.0761 87.9585 33.1943Z" fill="#020E40"/>
<path d="M80.7494 24.1734C78.2187 17.8056 74.0394 12.2639 68.6608 8.14411C63.2822 4.02431 56.9078 1.48221 50.2228 0.791117C43.5379 0.100022 36.7952 1.28607 30.7197 4.22175C24.6443 7.15743 19.4658 11.7317 15.7411 17.4528C15.7041 17.5091 15.6803 17.5734 15.6715 17.6406C15.6627 17.7079 15.6693 17.7763 15.6905 17.8405C15.7104 17.9053 15.7452 17.9643 15.7922 18.0123C15.8391 18.0603 15.8967 18.096 15.96 18.1162L16.9201 18.4523C16.9749 18.4687 17.0315 18.4774 17.0886 18.4781C17.1763 18.4769 17.2625 18.4544 17.3401 18.4124C17.4177 18.3705 17.4845 18.3103 17.5349 18.2369C20.7431 13.4001 25.0601 9.44052 30.1088 6.704C35.1574 3.96749 40.7842 2.53726 46.4977 2.53826C53.3813 2.53946 60.1122 4.61485 65.8501 8.50537C71.588 12.3959 76.0787 17.9292 78.7618 24.4146C78.7999 24.5085 78.8641 24.5887 78.9465 24.6454C79.0289 24.7021 79.1258 24.7327 79.225 24.7334H80.3704C80.4357 24.7342 80.5 24.7179 80.5574 24.6863C80.6149 24.6546 80.6636 24.6086 80.6989 24.5525C80.7396 24.4996 80.7657 24.4366 80.7746 24.37C80.7835 24.3033 80.7748 24.2355 80.7494 24.1734ZM17.0886 18.1852C17.0626 18.1836 17.037 18.1777 17.0128 18.1679C17.037 18.1777 17.0626 18.1836 17.0886 18.1852ZM78.9892 24.5783C79.0126 24.5959 79.0381 24.6104 79.065 24.6214C79.0398 24.6042 79.0145 24.5956 78.9892 24.5783Z" fill="url(#paint0_radial_893_21649)"/>
</g>
<defs>
<radialGradient id="paint0_radial_893_21649" cx="0" cy="0" r="1" gradientUnits="userSpaceOnUse" gradientTransform="translate(79.6731 24.6904) scale(64.0162 65.493)">
<stop offset="0.01" stop-color="white"/>
<stop offset="0.03" stop-color="#CBFFFF"/>
<stop offset="0.06" stop-color="#96FFFF"/>
<stop offset="0.08" stop-color="#68FFFF"/>
<stop offset="0.11" stop-color="#43FFFF"/>
<stop offset="0.14" stop-color="#25FFFF"/>
<stop offset="0.16" stop-color="#11FFFF"/>
<stop offset="0.19" stop-color="#04FFFF"/>
<stop offset="0.22" stop-color="#00FFFF"/>
<stop offset="1" stop-color="#0000FF" stop-opacity="0"/>
</radialGradient>
<clipPath id="clip0_893_21649">
<rect width="88" height="49" fill="white" transform="translate(0.126953 0.427124)"/>
</clipPath>
</defs>
</svg>
