<svg width="87" height="48" viewBox="0 0 87 48" fill="none" xmlns="http://www.w3.org/2000/svg">
<mask id="mask0" mask-type="alpha" maskUnits="userSpaceOnUse" x="0" y="18" width="87" height="30">
<path fill-rule="evenodd" clip-rule="evenodd" d="M0.0292969 18.1757H86.3775V47.7654H0.0292969V18.1757Z" fill="white"/>
</mask>
<g mask="url(#mask0)">
<path fill-rule="evenodd" clip-rule="evenodd" d="M85.9294 31.8945H80.6391C80.5494 30.1012 80.2804 28.3078 80.0115 26.5145C80.0115 26.3352 79.8321 26.1559 79.6528 26.1559H78.3975C78.3078 26.1559 78.2181 26.2455 78.1285 26.2455C78.0388 26.3352 78.0388 26.4249 78.0388 26.5145C78.3975 28.2182 78.5768 30.0115 78.7561 31.8048H73.5555C73.2865 31.8048 73.1072 31.9841 73.1072 32.2531V33.3291C73.1072 33.5981 73.2865 33.7775 73.5555 33.7775H78.7561C78.7561 34.0465 78.7561 34.3155 78.7561 34.4948C78.7561 36.1088 78.6665 37.3641 78.4871 38.8884C78.4871 38.9781 78.4871 39.1574 78.5768 39.1574C78.6665 39.2471 78.7561 39.2471 78.8458 39.2471H80.0115C80.1908 39.2471 80.4598 39.0677 80.4598 38.8884C80.6391 37.3641 80.6391 36.1088 80.6391 34.4948C80.6391 34.2258 80.6391 34.0465 80.6391 33.7775H85.8397C86.1087 33.7775 86.2881 33.5981 86.2881 33.3291V32.2531C86.3777 32.0738 86.1087 31.8945 85.9294 31.8945ZM69.4309 32.0738C69.4309 32.0738 69.3412 31.1771 68.4446 32.1635C67.7272 32.9705 66.3822 34.4948 65.3063 36.6468C66.4719 36.5571 67.5479 35.9294 67.9066 35.5708C68.3549 35.1224 69.6102 33.7775 69.4309 32.0738ZM69.9689 35.5708C69.1619 36.9158 67.0099 39.6954 64.1406 39.0677C63.1543 41.3991 62.3473 43.7304 61.899 47.2273C61.899 47.2273 61.8093 47.9447 61.2713 47.6757C60.7333 47.4963 59.747 46.51 59.5676 45.2547C59.3883 43.551 60.1056 40.6817 61.63 37.4538C61.1816 36.7364 60.9126 35.6604 61.092 34.2258C61.092 34.2258 61.4506 31.4461 64.2303 28.9355C64.2303 28.9355 64.5889 28.6665 64.7683 28.7562C64.9476 28.8458 64.8579 29.7425 64.6786 30.1908C64.4993 30.6392 63.2439 32.7911 63.2439 32.7911C63.2439 32.7911 62.437 34.2258 62.7059 35.3914C64.1406 33.1498 67.4582 28.6665 69.5206 30.1012C70.2379 30.5495 70.5069 31.6255 70.5069 32.7911C70.6862 33.6878 70.4172 34.7638 69.9689 35.5708ZM51.7667 37.2744C51.4081 37.9918 50.6011 38.7987 49.6147 38.3504C48.6284 37.8124 46.9248 34.4948 46.9248 34.4948C46.9248 34.4948 46.2971 33.2395 46.2074 33.2395C46.2074 33.2395 46.1178 32.9705 46.0281 34.4051C45.9384 35.7501 46.0281 38.4401 45.4901 38.7987C44.9521 39.2471 44.3245 39.0677 44.0555 38.5297C43.7865 38.0814 43.6071 36.9158 43.7865 34.8534C43.9658 32.8808 44.4141 30.7288 45.0418 30.0115C45.6694 29.3838 46.1178 29.8322 46.2971 30.0115C46.2971 30.0115 47.1041 30.7288 48.4491 32.8808L48.7181 33.2395C48.7181 33.2395 49.8837 35.2121 50.0631 35.2121C50.0631 35.2121 50.1527 35.3018 50.2424 35.2121C50.3321 35.2121 50.3321 34.4948 50.3321 34.4948C50.3321 34.4948 50.0631 32.3428 48.9871 28.5768C48.9871 28.5768 48.8077 28.1285 48.8974 27.6802C48.9871 27.2319 49.4354 27.4112 49.4354 27.4112C49.4354 27.4112 51.1391 28.2182 51.946 30.9978C52.6634 34.0465 52.1254 36.4674 51.7667 37.2744ZM61.092 31.1771C59.9263 31.4461 56.788 31.6255 56.788 31.6255L56.4293 32.8808C56.4293 32.8808 58.0433 32.7015 59.1193 32.8808C59.1193 32.8808 59.478 32.8808 59.5676 33.3291C59.5676 33.7775 59.5676 34.2258 59.5676 34.2258C59.5676 34.2258 59.5676 34.4948 59.1193 34.5844C58.671 34.6741 55.712 34.7638 55.712 34.7638L55.2637 36.3778C55.2637 36.3778 55.0844 36.7364 55.443 36.6468C55.8017 36.5571 58.94 35.9294 59.2986 36.0191C59.747 36.1088 60.1953 36.7364 60.1056 37.2744C59.9263 37.9021 56.8777 39.8747 54.9947 39.7851C54.9947 39.7851 54.0084 39.8747 53.2014 38.5297C52.3944 37.2744 53.4704 34.8534 53.4704 34.8534C53.4704 34.8534 53.022 33.6878 53.291 33.3291C53.291 33.3291 53.4704 33.1498 54.098 33.0601L54.8154 31.4461C54.8154 31.4461 53.9187 31.5358 53.4704 30.9082C53.022 30.2805 52.9324 30.0115 53.291 29.8322C53.6497 29.6528 57.326 29.0252 59.747 29.0252C59.747 29.0252 60.6436 28.9355 61.361 30.4598C61.361 30.4598 61.7196 31.0875 61.092 31.1771ZM28.9916 32.7015C29.0813 33.2395 28.9019 34.1361 28.9019 34.3155C28.9019 34.5844 28.6329 35.3018 28.6329 35.3914C28.4536 35.8398 28.2743 36.1088 28.0949 36.4674C27.7363 37.0054 27.019 37.9918 26.5706 38.3504C24.867 39.7851 22.2667 40.5921 20.025 40.8611C18.5007 41.0404 16.797 41.0404 15.1831 40.6817C14.6451 40.5921 13.8381 40.4127 13.8381 40.4127C13.8381 40.4127 13.8381 40.7714 13.8381 40.9507C13.8381 41.0404 13.7484 41.3094 13.6587 41.3991C13.5691 41.6681 13.3897 41.7577 13.0311 41.8474C12.6724 41.937 12.3138 41.937 12.0448 41.7577C11.5068 41.5784 11.3274 41.0404 11.2378 40.5024C11.1481 40.0541 11.0584 39.3367 11.0584 39.3367C11.0584 39.3367 10.6998 39.1574 10.3411 38.9781C9.35478 38.5297 8.45813 37.9021 7.65113 37.2744C7.38213 37.0951 6.48548 36.2881 6.21648 36.1088C5.58882 35.5708 5.05082 34.9431 4.69216 34.2258C4.3335 33.6878 4.24383 33.1498 4.51283 32.5221C4.87149 31.7151 6.03715 31.0875 6.84414 30.7288C7.4718 30.4598 9.35478 29.8322 10.0721 29.7425C10.4308 29.6528 10.9688 29.5632 11.0584 29.5632C11.0584 29.5632 11.1481 28.6665 11.0584 28.3975C11.0584 28.1285 11.2378 26.1559 11.3274 25.7075C11.3274 25.5282 11.5068 24.6315 11.6861 24.3625C11.7758 24.1832 11.9551 24.1832 12.1344 24.3625C13.0311 24.9005 13.3001 26.8732 13.3897 27.8595C13.3897 28.4872 13.4794 29.3838 13.4794 29.3838C13.4794 29.3838 14.4657 29.3838 15.0934 29.3838C15.7211 29.3838 16.3487 29.4735 16.9764 29.5632C17.7834 29.6528 19.3974 30.0115 20.294 30.4598C21.0113 30.8185 21.7287 31.4461 21.9977 32.1635C22.177 32.7911 22.177 33.2395 21.8183 33.7775C21.4597 34.4051 20.7423 34.8534 20.1147 34.9431C19.9354 34.9431 19.1284 34.8534 18.8594 34.6741C18.7697 34.5844 18.7697 34.4948 18.8594 34.4051C18.8594 34.4051 19.218 34.1361 19.487 34.0465C19.5767 33.9568 19.6664 33.9568 19.756 33.8671C19.9354 33.6878 20.1147 33.5085 20.1147 33.3291C20.1147 33.0601 19.8457 32.8808 19.5767 32.7911C18.3214 32.2531 15.9004 31.8945 14.6451 31.8048C14.1967 31.8048 13.4794 31.7151 13.4794 31.7151L13.6587 38.3504C13.6587 38.3504 14.1967 38.4401 14.6451 38.5297C14.9141 38.5297 15.9901 38.6194 16.2591 38.7091C18.411 38.7987 20.7423 38.6194 22.715 37.6331C23.6116 37.1848 24.329 36.7364 24.9566 36.0191C25.7636 35.1224 26.1223 33.8671 26.0326 32.6118C25.943 31.1771 24.9566 29.5632 24.1496 28.4872C22.0873 25.7972 18.5007 23.5556 15.2727 22.3002C12.0448 20.9552 8.81679 20.2379 5.40949 20.0586C4.51283 20.0586 2.62985 20.0586 1.64352 20.3276C1.46419 20.3276 1.37452 20.4172 1.19519 20.4172C1.10553 20.4172 0.926196 20.5069 0.926196 20.5069L0.83653 20.5966C0.83653 20.5966 0.926196 20.5966 0.926196 20.6862C1.28486 20.7759 1.73319 20.7759 1.91252 20.8656C2.09185 20.8656 2.36085 21.0449 2.36085 21.1346C2.45051 21.3139 2.45051 21.4036 2.36085 21.4932C2.18152 21.7622 1.37453 21.7622 1.01586 21.6726C0.657198 21.5829 0.119203 21.4932 0.119203 21.1346C-0.0601282 20.7759 0.119203 20.4172 0.298535 20.0586C0.657198 19.3413 1.28486 18.9826 2.09185 18.7136C3.25751 18.3549 4.78183 18.1756 5.94748 18.0859C8.54779 18.0859 10.9688 18.5343 13.4794 19.2516C14.9141 19.6999 16.797 20.4172 18.142 21.0449C19.1284 21.4932 20.6527 22.3899 21.5493 22.9279C21.8183 23.1072 23.4323 24.2729 23.7013 24.4522C24.2393 24.9005 24.867 25.4385 25.405 25.9765C26.3913 26.8732 27.5569 28.3078 28.0949 29.4735C28.2743 29.7425 28.3639 30.0115 28.5433 30.3702C28.6329 30.4598 28.9019 31.0875 28.9019 31.3565C28.9019 31.5358 28.9916 31.8048 28.9916 31.8048C28.8123 31.8945 28.9916 32.4325 28.9916 32.7015ZM11.0584 31.8945C11.0584 31.8945 10.0721 31.9841 9.44445 32.0738C8.54779 32.1635 7.02347 32.4325 6.03715 32.7911C5.76815 32.8808 5.23016 33.1498 5.14049 33.4188C5.05082 33.6878 5.23016 33.9568 5.49915 34.2258C5.58882 34.4051 6.30615 35.0328 6.48548 35.1224C7.29247 35.7501 8.90645 36.8261 10.0721 37.2744C10.5204 37.4538 11.1481 37.7228 11.1481 37.7228C11.1481 37.7228 11.0584 35.8398 11.1481 33.9568C11.0584 32.8808 11.0584 31.8945 11.0584 31.8945ZM31.0539 29.3838C31.0539 29.3838 31.1436 29.3838 31.2332 29.3838C31.6816 29.5632 31.8609 30.0115 31.9506 30.4598C32.2196 31.5358 32.3092 33.8671 32.3989 34.7638C32.3989 35.4811 32.4886 36.1088 32.4886 36.8261C32.4886 37.3641 32.5782 38.1711 32.3989 38.7091C32.3989 38.8884 32.2196 39.1574 32.0402 39.2471C31.8609 39.4264 31.3229 39.4264 31.0539 39.3367C30.4263 39.1574 30.1573 38.7987 30.0676 38.1711C29.8883 36.6468 29.9779 33.5981 30.0676 32.3428C30.0676 31.8945 30.2469 30.5495 30.5159 30.0115C30.6056 29.6528 30.6952 29.2942 31.0539 29.3838ZM29.8883 27.4112C29.7986 27.5008 29.7089 27.6802 29.6193 27.8595C29.5296 27.9492 29.4399 28.0388 29.4399 28.1285C29.2606 28.3078 29.0813 28.3078 28.8123 28.1285C28.5433 27.8595 28.3639 27.5008 28.3639 27.0525C28.3639 26.8732 28.3639 26.6939 28.3639 26.5145C28.2743 26.2455 28.0949 25.9765 27.9156 25.7972C27.7363 25.5282 27.6466 25.0799 27.6466 24.7212C27.5569 23.7349 28.0949 22.8382 28.7226 22.2106C29.3503 21.4932 30.2469 20.9552 31.2332 20.5069C32.1299 20.1483 33.4749 19.8793 34.3715 20.2379C34.7302 20.3276 35.1785 20.5966 35.3579 20.8656C35.4475 20.9552 35.4475 20.9552 35.5372 21.0449C35.5372 21.0449 35.7165 21.0449 35.8062 21.1346C36.0752 21.2242 36.6132 21.4036 36.7925 21.5829C37.1512 21.9416 37.3305 22.2106 37.4202 22.6589C37.5995 23.5556 37.0615 24.5419 36.5235 25.0799C35.5372 26.0662 34.5509 26.7835 33.2956 27.3215C32.7576 27.5008 31.8609 27.7698 31.2332 27.6802C31.0539 27.6802 30.8746 27.5905 30.6056 27.5905C30.5159 27.5905 30.1573 27.5008 30.0676 27.5008C29.9779 27.4112 29.8883 27.3215 29.8883 27.4112ZM32.0402 25.7972C32.8472 25.7075 33.6542 25.5282 34.3715 25.0799C35.0889 24.7212 36.1649 23.9142 35.9855 23.0176C35.9855 22.7486 35.7165 22.4796 35.5372 22.3899C35.1785 22.2106 35.0889 22.3002 34.6405 22.3899C34.3715 22.4796 34.1922 22.5692 33.9232 22.6589C33.1162 23.1072 31.9506 24.1832 31.3229 24.9902C31.1436 25.1695 31.0539 25.4385 30.8746 25.5282C30.7849 25.6179 30.7849 25.7075 30.7849 25.7075C30.7849 25.7972 31.6816 25.7972 32.0402 25.7972ZM29.0813 24.9902C29.0813 24.9902 29.3503 24.5419 29.6193 24.2729C30.0676 23.7349 30.7849 22.9279 31.4126 22.3899C31.5919 22.2106 31.7712 22.0312 31.7712 22.0312C31.7712 22.0312 31.4126 22.0312 31.2332 22.1209C30.7849 22.2106 30.1573 22.6589 29.7986 22.9279C29.2606 23.3762 28.7226 24.0935 28.9916 24.8109C28.9916 24.9005 29.0813 24.9902 29.0813 24.9902ZM39.2135 32.6118C39.3032 32.6118 39.3032 32.6118 39.3032 32.6118C40.1102 32.7015 40.8275 32.8808 41.4551 33.1498C41.9931 33.4188 42.3518 33.6878 42.6208 34.2258C43.0691 35.0328 43.0691 36.1984 42.7105 37.0951C42.4415 37.7228 41.7241 38.2607 41.1861 38.5297C40.5585 38.7987 39.9308 38.9781 39.2135 39.0677C37.9582 39.1574 36.7029 38.9781 35.5372 38.4401C34.9095 38.0814 34.1026 37.5434 33.6542 36.8261C33.3852 36.2881 33.3852 35.6604 33.7439 35.1224C34.2819 34.3155 35.5372 34.1361 36.4339 34.2258C37.1512 34.2258 38.4065 34.4948 39.0342 34.6741C39.2135 34.7638 39.9308 35.0328 40.0205 35.1224C40.1102 35.2121 40.1998 35.3018 40.1102 35.4811C39.9308 35.9294 38.8548 36.1984 38.4962 36.2881C37.5995 36.3778 37.1512 36.1088 36.1649 35.6604C35.8959 35.5708 35.6269 35.4811 35.3579 35.3914C34.9095 35.3914 34.3715 35.4811 34.2819 35.9294C34.2819 36.1984 34.5509 36.4674 34.7302 36.5571C35.2682 36.8261 35.7165 36.8261 36.2545 36.9158C37.7789 36.9158 39.5722 36.6468 40.8275 35.7501C41.0068 35.6604 41.1861 35.4811 41.1861 35.2121C41.1861 34.7638 40.3792 34.4948 40.3792 34.4948C39.4825 34.1361 37.9582 33.9568 37.1512 33.8671C36.2545 33.7775 34.9095 33.6878 34.6405 33.5981C34.2819 33.5085 33.9232 33.5085 33.6542 33.3291C33.3852 33.2395 33.1162 32.8808 33.0266 32.6118C32.8472 31.9841 33.0266 31.2668 33.3852 30.8185C34.1922 29.5632 36.2545 29.1148 37.6892 28.9355C39.1238 28.7562 41.4551 28.7562 42.8898 29.4735C43.0691 29.5632 43.2485 29.7425 43.1588 29.9218C43.0691 30.3702 42.7105 30.6392 42.3518 30.7288C41.9035 30.8185 41.0965 30.9082 40.6482 30.9082C38.9445 30.9978 36.8822 30.9978 35.2682 31.3565C35.1785 31.3565 34.9095 31.4461 34.8199 31.5358C34.5509 31.8048 35.2682 31.8945 35.4475 31.8945C35.5372 31.8945 35.5372 31.8945 35.5372 31.8945L39.2135 32.6118Z" fill="white"/>
</g>
<path fill-rule="evenodd" clip-rule="evenodd" d="M14.9139 17.0463C14.8242 17.136 14.8242 17.3153 14.8242 17.405C14.9139 17.4946 15.0035 17.674 15.0932 17.674L16.0795 18.0326C16.1692 18.0326 16.1692 18.0326 16.2589 18.0326C16.4382 18.0326 16.6175 17.943 16.7072 17.7636C19.8455 13.1907 24.1495 9.33504 29.0811 6.64506C34.192 3.95509 40.0203 2.52043 45.7589 2.52043C52.7529 2.52043 59.5675 4.58275 65.3957 8.43838C71.0447 12.2043 75.4383 17.5843 78.1283 23.7712C78.218 23.9506 78.3973 24.0402 78.5766 24.0402H79.7423C79.8319 24.0402 80.0113 23.9506 80.1009 23.8609C80.1906 23.7712 80.1906 23.5919 80.1009 23.5022C77.3213 16.7773 72.7483 11.0387 66.6511 7.00373C60.5538 2.8791 53.2909 0.637451 45.7589 0.637451C33.385 0.637451 21.8182 6.73473 14.9139 17.0463Z" fill="url(#paint0_linear)"/>
<defs>
<linearGradient id="paint0_linear" x1="80.3225" y1="12.6492" x2="19.8484" y2="5.89701" gradientUnits="userSpaceOnUse">
<stop stop-color="white"/>
<stop offset="0.1179" stop-color="#69E3F1"/>
<stop offset="0.5639" stop-color="#2961E9"/>
<stop offset="1" stop-color="#265ADF" stop-opacity="0"/>
</linearGradient>
</defs>
</svg>
