<svg width="158" height="20" viewBox="0 0 158 20" fill="none" xmlns="http://www.w3.org/2000/svg">
<path d="M155.355 17.8272C155.402 17.7686 155.428 17.6963 155.426 17.6222C155.427 17.5762 155.417 17.5306 155.398 17.4883C155.379 17.4461 155.35 17.4081 155.314 17.3768C155.279 17.3455 155.237 17.3216 155.191 17.3067C155.145 17.2917 155.096 17.2861 155.047 17.2901H154.581V18.3955H154.8V17.9674H154.962L155.212 18.3981H155.464L155.19 17.9362C155.255 17.9162 155.312 17.8783 155.355 17.8272ZM155.031 17.7624H154.8V17.5029H155.031C155.141 17.5029 155.198 17.547 155.198 17.6352C155.198 17.7234 155.141 17.7624 155.031 17.7624ZM154.965 16.8048C154.748 16.8048 154.535 16.8657 154.355 16.9797C154.174 17.0938 154.034 17.2559 153.95 17.4456C153.867 17.6352 153.846 17.8439 153.888 18.0453C153.93 18.2466 154.035 18.4316 154.188 18.5768C154.342 18.7219 154.538 18.8208 154.751 18.8608C154.964 18.9009 155.184 18.8803 155.385 18.8018C155.586 18.7232 155.757 18.5902 155.878 18.4195C155.998 18.2488 156.063 18.0481 156.063 17.8428C156.063 17.5675 155.947 17.3035 155.741 17.1088C155.535 16.9142 155.256 16.8048 154.965 16.8048ZM154.965 18.6784C154.79 18.6784 154.619 18.6294 154.474 18.5376C154.328 18.4457 154.215 18.3152 154.148 18.1626C154.081 18.0099 154.064 17.8419 154.098 17.6798C154.132 17.5177 154.216 17.3688 154.34 17.252C154.463 17.1351 154.621 17.0555 154.792 17.0233C154.964 16.991 155.142 17.0076 155.303 17.0708C155.465 17.1341 155.603 17.2412 155.7 17.3786C155.797 17.516 155.849 17.6775 155.849 17.8428C155.848 18.0642 155.755 18.2763 155.589 18.4329C155.423 18.5894 155.199 18.6777 154.965 18.6784ZM154.723 12.1261H151.383V16.4545H146.889V12.1261H142.311V7.87554H146.889V3.54714H151.383V7.87554H157.21L154.723 12.1261ZM143.324 13.9192V18.6317H128.646V1.35959H143.304V6.08502H134.164V7.87554H140.897V12.1261H134.164V13.9192H143.324ZM111.581 1.35959H127.244V6.08502H122.199V18.6317H116.692V6.08502H111.581V1.35959ZM102.372 1.35959L95.1582 18.6317H100.978L101.636 16.7555H108.021L108.68 18.6317H114.513L107.283 1.35959H102.372ZM102.844 13.2964L104.823 7.66535L106.799 13.2964H102.844ZM96.366 10.0008C96.344 14.6718 94.3567 19.1221 87.5658 19.1221C80.8818 19.1221 78.4636 14.6718 78.4416 10.0008C78.4636 5.32988 80.665 0.879521 87.5685 0.879521C94.6889 0.879521 95.8253 5.32988 95.8417 6.67926H90.286C90.286 6.67926 90.0472 4.96659 87.585 4.96659C85.5812 4.96659 84.0166 6.1447 84.0166 9.99822C84.0166 14.0567 85.9133 15.0299 87.585 15.0299C90.8158 15.0299 90.824 12.1001 90.824 12.1001H87.4093V8.46719H96.3715L96.366 10.0008ZM77.3162 13.4054C77.3162 16.5998 74.8732 19.1143 69.1939 19.1143C61.5246 19.1143 60.9591 14.664 60.9289 13.3146H66.4929C66.4929 14.0542 66.9486 15.0273 69.1939 15.0273C71.2252 15.0273 71.8098 14.2851 71.8098 13.5897C71.8098 10.7663 61.3956 13.4625 61.3956 6.07983C61.3956 4.8602 62.4414 0.889901 69.161 0.889901C75.7653 0.882116 76.7672 4.9614 76.7672 6.29002H71.4804C71.4804 5.74508 71.0852 4.73304 69.0759 4.73304C67.2889 4.73304 66.6686 5.34805 66.6686 6.10059C66.6686 8.85384 77.3162 6.08502 77.3162 13.4054ZM53.7976 1.35959H59.3039V18.6213H53.7976L48.2912 10.0008V18.6317H42.8014V1.35959H48.2912L53.7976 9.99044V1.35959ZM31.5773 0.869141C24.5668 0.869141 22.3077 5.3195 22.2885 9.99044C22.2693 14.6614 24.5668 19.1117 31.5773 19.1117C38.5879 19.1117 40.8442 14.6614 40.8662 9.99044C40.8442 5.32988 38.5879 0.879521 31.5773 0.879521V0.869141ZM31.5773 15.0221C29.7904 15.0221 27.8854 14.049 27.8854 9.99044C27.8854 5.93191 29.7904 4.9588 31.5773 4.9588C33.3643 4.9588 35.2665 5.93191 35.2665 9.99044C35.2665 14.049 33.3643 15.0325 31.5773 15.0325V15.0221ZM14.8607 1.35959H20.367V18.6213H14.8607V1.35959ZM6.29651 13.9192H13.1588V18.6317H0.806641V1.35959H6.29651V13.9192Z" fill="url(#paint0_linear_3070_60770)"/>
<defs>
<linearGradient id="paint0_linear_3070_60770" x1="16.3402" y1="-52.3769" x2="141.743" y2="94.5872" gradientUnits="userSpaceOnUse">
<stop offset="0.12" stop-color="#FFF242"/>
<stop offset="0.14" stop-color="#FFF34C"/>
<stop offset="0.18" stop-color="#FFF568"/>
<stop offset="0.23" stop-color="#FFF994"/>
<stop offset="0.29" stop-color="#FFFED2"/>
<stop offset="0.3" stop-color="#FFFFD9"/>
<stop offset="0.55" stop-color="#9EF7FB"/>
<stop offset="0.8" stop-color="#00E9F8"/>
</linearGradient>
</defs>
</svg>
