<svg width="101" height="28" viewBox="0 0 101 28" fill="none" xmlns="http://www.w3.org/2000/svg">
<path d="M14.1093 25.6174C12.6101 25.8772 11.0845 25.955 9.50635 26.1625L4.69281 12.2515V26.7595C3.19361 26.9152 1.82589 27.1228 0.405518 27.3304V0.754028H4.40366L9.87453 15.8332V0.754028H14.1093V25.6174ZM22.3947 10.4866C24.0256 10.4866 26.5243 10.4087 28.0235 10.4087V14.5612C26.156 14.5612 23.9729 14.5612 22.3947 14.6391V20.8161C24.8673 20.6605 27.3397 20.4526 29.8384 20.3748V24.3714L18.1861 25.2799V0.754028H29.8384V4.9066H22.3947V10.4866ZM45.4885 4.90669H41.1223V24.0085C39.7019 24.0085 38.2816 24.0085 36.914 24.0602V4.90669H32.5478V0.754028H45.4887L45.4885 4.90669ZM52.3272 10.2012H58.0876V14.3537H52.3272V23.7749H48.1974V0.754028H59.9551V4.9066H52.3272V10.2012ZM66.7938 20.1413C69.1874 20.1931 71.6072 20.375 73.9482 20.5046V24.6053C70.187 24.3716 66.4256 24.1383 62.5855 24.0602V0.754028H66.7938V20.1413ZM77.4991 24.8908C78.8405 24.9688 80.2609 25.0467 81.6286 25.2021V0.754028H77.4991V24.8908ZM100.067 0.754028L94.7275 13.3934L100.067 27.3304C98.4887 27.1228 96.9106 26.8373 95.3323 26.5777L92.3076 18.8956L89.2305 25.955C87.7046 25.6953 86.2317 25.6174 84.7064 25.4098L90.1247 13.2376L85.2323 0.754028H89.7562L92.518 7.73554L95.464 0.754028H100.067Z" fill="white"/>
</svg>
