<svg width="217" height="65" viewBox="0 0 217 65" fill="none" xmlns="http://www.w3.org/2000/svg">
<path d="M21.4983 1.21875C22.678 1.21875 23.4947 1.85069 23.7669 2.93403L35.5184 44.9132L47.3606 2.93403C47.6328 1.85069 48.4495 1.21875 49.6292 1.21875H68.7764C69.6838 1.21875 70.319 2.12153 70.0468 2.93403L51.1719 62.9688C50.8089 64.1424 49.9922 64.684 48.8125 64.684H21.8613C20.6816 64.684 19.8649 64.1424 19.5019 62.9688L0.536242 2.93403C0.264007 2.12153 0.899221 1.21875 1.80667 1.21875H21.4983Z" fill="#FF5900"/>
<path d="M98.1776 62.8784C98.1776 63.9618 97.4517 64.684 96.3627 64.684H76.8526C75.7636 64.684 75.0377 63.9618 75.0377 62.8784V32.8611C75.0377 31.7777 75.7636 31.0555 76.8526 31.0555H96.3627C97.4517 31.0555 98.1776 31.7777 98.1776 32.8611V62.8784ZM73.6765 13.1805C73.6765 6.0937 79.5296 0.315918 86.6077 0.315918C93.7311 0.315918 99.5388 6.13883 99.5388 13.1805C99.5388 20.2222 93.6857 26.0451 86.6077 26.0451C79.4842 26.0451 73.6765 20.2673 73.6765 13.1805Z" fill="#FF5900"/>
<path d="M104.847 62.4271L123.269 32.9514L104.847 3.47569C104.212 2.39236 104.757 1.21875 106.027 1.21875H126.898C128.35 1.21875 129.167 1.67014 129.802 2.75347L139.92 20.3576L150.038 2.75347C150.674 1.67014 151.49 1.21875 152.942 1.21875H173.36C174.63 1.21875 175.175 2.39236 174.539 3.47569L156.164 32.9514L174.585 62.4271C175.22 63.5104 174.676 64.684 173.405 64.684H152.534C151.082 64.684 150.265 64.2326 149.63 63.1493L139.512 45.5451L129.394 63.1493C128.759 64.2326 127.942 64.684 126.49 64.684H106.073C104.757 64.684 104.212 63.5104 104.847 62.4271Z" fill="#FF5900"/>
<path d="M216.509 24.7812C216.509 25.8646 215.783 26.5868 214.694 26.5868H204.213V37.2847C204.213 38.3681 203.487 39.0903 202.398 39.0903H192.552C191.463 39.0903 190.737 38.3681 190.737 37.2847V26.5868H180.256C179.167 26.5868 178.441 25.8646 178.441 24.7812V15.5278C178.441 14.4444 179.167 13.7222 180.256 13.7222H190.737V3.02431C190.737 1.94097 191.463 1.21875 192.552 1.21875H202.398C203.487 1.21875 204.213 1.94097 204.213 3.02431V13.7222H214.694C215.783 13.7222 216.509 14.4444 216.509 15.5278V24.7812Z" fill="#FF5900"/>
</svg>
