<svg width="120" height="37" viewBox="0 0 120 37" fill="none" xmlns="http://www.w3.org/2000/svg">
<g clip-path="url(#clip0_1424_238)">
<path d="M89.7716 36.1545C88.1996 36.1942 86.2563 36.1148 84.3109 36.1922C83.5053 36.2259 82.9217 35.8549 82.4992 35.0971C80.8289 32.0976 79.1096 29.1259 77.402 26.1482C77.0915 25.6066 76.9717 25.5967 76.6474 26.1482C75.7691 27.6519 74.9222 29.1735 74.0576 30.6852C73.1222 32.3238 72.1928 33.9683 71.2299 35.5911C70.9804 36.0097 70.5167 36.1426 70.0352 36.1446C67.989 36.1446 65.9441 36.1446 63.9005 36.1446C62.1648 36.1512 60.4284 36.1545 58.6913 36.1545C57.9604 36.1545 57.6047 35.5375 57.9898 34.9027C58.823 33.5279 59.6876 32.171 60.5266 30.8002C61.5622 29.108 62.5801 27.402 63.6195 25.7098C64.8398 23.726 66.0876 21.7422 67.298 19.7584C68.2805 18.1297 68.194 18.6455 67.2567 17.0922C66.6122 16.0269 65.9756 14.9536 65.3212 13.8943C64.4998 12.5671 63.6569 11.2538 62.8394 9.92669C62.1419 8.79592 61.4639 7.64929 60.7762 6.51654C60.1395 5.481 59.4813 4.45934 58.8387 3.42776C58.5194 2.95186 58.2287 2.457 57.9682 1.94586C57.6479 1.26145 58.0016 0.717892 58.7405 0.767487C59.5913 0.825017 60.4382 0.75757 61.2949 0.753602C64.0597 0.735748 66.8244 0.741699 69.5892 0.753602C70.3968 0.753602 71.2417 0.769473 71.7055 1.59077C72.0094 2.13433 72.3159 2.67722 72.6251 3.21946C73.4288 4.5982 74.2148 6.00075 75.0008 7.38941C75.6571 8.54596 76.3095 9.7045 76.9835 10.8511C77.2409 11.2896 77.3764 11.2876 77.6162 10.8511C78.5849 9.15301 79.5399 7.44892 80.5028 5.74682C81.2888 4.35949 82.0747 2.9748 82.8607 1.59275C83.2282 0.949998 83.8432 0.737731 84.5192 0.733763C87.5748 0.72186 90.6323 0.713925 93.6898 0.733763C94.3422 0.733763 94.9965 0.767487 95.6548 0.77939C95.9496 0.77939 96.2934 0.77939 96.4172 1.1087C96.4795 1.27073 96.502 1.44557 96.4829 1.61829C96.4637 1.79102 96.4034 1.95649 96.3072 2.1006C94.9612 4.17962 93.6859 6.30427 92.4047 8.42495C91.2139 10.3929 89.9563 12.3191 88.7891 14.301C88.0326 15.5865 87.2171 16.8343 86.4115 18.094C86.3396 18.1934 86.3022 18.3139 86.3051 18.4369C86.3079 18.5599 86.3508 18.6785 86.4272 18.7744C87.1484 19.927 87.8577 21.0895 88.573 22.2461C89.4985 23.7399 90.4319 25.2218 91.3495 26.7215C92.2161 28.134 93.065 29.5564 93.9296 30.9708C94.7352 32.2861 95.5644 33.5875 96.3603 34.9067C96.7336 35.5256 96.3602 36.1327 95.6037 36.1366C93.7782 36.1684 91.9626 36.1545 89.7716 36.1545Z" fill="white"/>
<path d="M6.66616 0.735476H11.8184C12.7852 0.735476 13.0347 0.933854 13.302 1.88013C14.2255 5.15736 15.1608 8.42666 16.0765 11.7118C16.9136 14.7054 17.731 17.7049 18.5544 20.7024C18.8668 21.8451 19.1655 22.9917 19.4779 24.1344C19.529 24.3189 19.5585 24.5768 19.7963 24.5728C19.9928 24.5728 19.977 24.3228 20.0183 24.176C20.5816 22.2002 21.141 20.2217 21.6964 18.2405C22.3311 15.9929 22.9717 13.7452 23.5926 11.4956C24.247 9.11504 24.8777 6.73448 25.5242 4.35392C25.758 3.49692 26.0096 2.64587 26.2454 1.79086C26.4419 1.06677 26.7759 0.775152 27.5344 0.757298C28.6466 0.729525 29.7588 0.735474 30.8749 0.73349C33.1818 0.73349 35.488 0.73349 37.7936 0.73349C38.6464 0.73349 38.9274 1.02908 38.7054 1.85632C38.3124 3.33227 37.8388 4.78838 37.3928 6.25242C37.026 7.46386 36.6539 8.67398 36.2766 9.88277C35.6262 11.9717 34.9699 14.0487 34.3215 16.1476C33.9285 17.4014 33.5551 18.6611 33.1641 19.9168C32.7731 21.1726 32.3781 22.3867 32.0008 23.6285C31.5037 25.283 30.9653 26.9236 30.4505 28.5721C29.9219 30.2663 29.4326 31.9744 28.8785 33.6606C28.7213 34.1387 28.6014 34.6366 28.4403 35.1167C28.3445 35.4601 28.1292 35.7572 27.8339 35.9533C27.5386 36.1493 27.1832 36.2312 26.8329 36.184C26.546 36.1562 26.2434 36.2078 25.9585 36.2078H12.6122C12.3505 36.2244 12.0878 36.1949 11.8361 36.1205C11.6485 36.068 11.476 35.9715 11.3325 35.8387C11.1891 35.706 11.0788 35.5408 11.0108 35.3567C10.4213 33.7876 9.98897 32.1688 9.50558 30.5659C9.05363 29.0681 8.55452 27.5902 8.08489 26.0924C7.14955 23.1114 6.21684 20.1284 5.28674 17.1435C4.43786 14.427 3.5916 11.7099 2.74797 8.99205C2.19973 7.23638 1.60238 5.49461 1.14454 3.70919C0.987337 3.09421 0.708308 2.50701 0.555038 1.88013C0.370329 1.07272 0.629707 0.729523 1.46286 0.727539C3.19599 0.727539 4.92977 0.727539 6.6642 0.727539L6.66616 0.735476Z" fill="white"/>
<path d="M108.942 21.871C108.011 21.871 107.077 21.871 106.146 21.871C105.661 21.871 105.419 21.623 105.36 21.1786C105.3 20.8517 105.274 20.5192 105.283 20.1867C105.364 18.6374 105.321 17.09 105.283 15.5407C105.271 15.0864 105.148 14.9039 104.66 14.9118C103.043 14.9396 101.424 14.9257 99.8049 14.9118C98.8499 14.9118 98.4942 14.5468 98.4942 13.5965C98.4942 12.0293 98.4844 10.4621 98.4942 8.89493C98.4942 8.1272 98.7772 7.81773 99.52 7.73243C100.66 7.60348 101.805 7.70267 102.949 7.68283C103.259 7.68283 103.57 7.68283 103.88 7.68283C105.635 7.66101 105.238 7.86137 105.295 6.20292C105.344 4.74086 105.283 3.27086 105.325 1.80484C105.346 1.0629 105.539 0.765324 106.26 0.751437C108.123 0.715729 109.993 0.723664 111.85 0.751437C112.391 0.751437 112.729 1.18986 112.733 1.74334C112.733 3.49305 112.733 5.24078 112.733 6.99049C112.733 7.63125 112.799 7.6868 113.442 7.68482C114.963 7.68482 116.484 7.68482 118.005 7.68482C118.202 7.68718 118.399 7.70375 118.594 7.73441C119.197 7.82567 119.488 8.14307 119.494 8.76003C119.506 10.3947 119.506 12.0287 119.494 13.662C119.494 14.5567 119.135 14.9058 118.225 14.9138C116.606 14.9257 114.986 14.9416 113.367 14.9138C112.86 14.9138 112.723 15.0943 112.727 15.5744C112.744 17.2408 112.727 18.9072 112.727 20.5736C112.727 21.5793 112.446 21.8531 111.444 21.867C111.019 21.867 110.595 21.867 110.168 21.867H108.942V21.871Z" fill="white"/>
<path d="M54.2367 26.799C54.2367 29.5208 54.2367 32.2432 54.2367 34.9663C54.2367 35.8273 53.9046 36.1566 53.0577 36.1566C49.6412 36.1566 46.2241 36.1566 42.8063 36.1566C41.8494 36.1566 41.6273 35.9582 41.5409 35C41.5074 34.6231 41.5271 34.2422 41.5271 33.8613C41.5271 28.8463 41.5271 23.8306 41.5271 18.8142C41.5271 17.7013 41.7786 17.4494 42.8751 17.4375C44.6573 17.4176 46.4376 17.376 48.2179 17.376C49.8685 17.376 51.5171 17.4176 53.1677 17.4434C53.9537 17.4573 54.221 17.7093 54.2249 18.5286C54.2347 21.2841 54.2249 24.0415 54.2249 26.797L54.2367 26.799Z" fill="white"/>
<path d="M47.9506 0.229628C51.4228 0.0312482 55.0541 3.38784 55.0364 7.38718C55.0187 11.2992 51.7411 14.628 47.9172 14.6161C43.9872 14.6023 40.9906 11.3449 40.7588 7.8375C40.4758 3.51876 44.3193 -0.0342172 47.9506 0.229628Z" fill="white"/>
</g>
<defs>
<clipPath id="clip0_1424_238">
<rect width="119" height="36" fill="white" transform="translate(0.5 0.21582)"/>
</clipPath>
</defs>
</svg>
